<?xml version="1.0" standalone="no"?><!DOCTYPE svg PUBLIC "-//W3C//DTD SVG 1.1//EN" "http://www.w3.org/Graphics/SVG/1.1/DTD/svg11.dtd"><svg t="1574596511294" class="icon" viewBox="0 0 1024 1024" version="1.1" xmlns="http://www.w3.org/2000/svg" p-id="3246" xmlns:xlink="http://www.w3.org/1999/xlink" width="200" height="200"><defs><style type="text/css"></style></defs><path d="M214.4 780.8c172.8 38.4 284.8-35.2 361.6-124.8 6.4 6.4 9.6 6.4 16 6.4 54.4 28.8 310.4 150.4 310.4 150.4v-144c-38.4 0-179.2-48-281.6-83.2 54.4-96 73.6-188.8 73.6-188.8h-179.2v-67.2h211.2v-32h-211.2V195.2h-96v102.4H224v28.8h192v67.2H252.8v28.8h332.8c0 6.4 0 6.4-6.4 9.6 0 35.2-25.6 83.2-44.8 121.6-246.4-96-320-38.4-339.2-28.8-160 115.2-3.2 262.4 19.2 256z m-12.8-211.2c121.6-38.4 227.2 6.4 304 44.8-6.4 9.6-9.6 16-9.6 16-121.6 153.6-265.6 105.6-291.2 96-57.6-19.2-76.8-124.8-3.2-156.8z" fill="#2c2c2c" p-id="3247"></path></svg>