<?xml version="1.0" standalone="no"?><!DOCTYPE svg PUBLIC "-//W3C//DTD SVG 1.1//EN" "http://www.w3.org/Graphics/SVG/1.1/DTD/svg11.dtd"><svg t="1574603657284" class="icon" viewBox="0 0 1024 1024" version="1.1" xmlns="http://www.w3.org/2000/svg" p-id="4856" xmlns:xlink="http://www.w3.org/1999/xlink" width="200" height="200"><defs><style type="text/css"></style></defs><path d="M923.927273 209.454545c-6.981818-9.309091-23.272727-11.636364-32.581818-4.654545-9.309091 6.981818-11.636364 23.272727-4.654546 32.581818C947.2 316.509091 977.454545 411.927273 977.454545 512c0 256-209.454545 465.454545-465.454545 465.454545S46.545455 768 46.545455 512 256 46.545455 512 46.545455c100.072727 0 195.490909 30.254545 274.618182 90.763636 9.309091 6.981818 25.6 4.654545 32.581818-4.654546s4.654545-25.6-4.654545-32.581818C726.109091 34.909091 621.381818 0 512 0 230.4 0 0 230.4 0 512s230.4 512 512 512 512-230.4 512-512c0-109.381818-34.909091-214.109091-100.072727-302.545455z" fill="#1296db" p-id="4857"></path><path d="M721.454545 363.054545L474.763636 609.745455 302.545455 437.527273c-9.309091-9.309091-23.272727-9.309091-32.581819 0s-9.309091 23.272727 0 32.581818l190.836364 190.836364c4.654545 4.654545 11.636364 6.981818 16.290909 6.981818s11.636364-2.327273 16.290909-6.981818L756.363636 395.636364c9.309091-9.309091 9.309091-23.272727 0-32.581819s-25.6-9.309091-34.909091 0z" fill="#1296db" p-id="4858"></path></svg>